# xmcd
#
# Track frame offsets:
#	150
#	14417
#	34617
#	50262
#	70170
#	86820
#	101715
#	117155
#	131985
#
# Disc length: 1996 seconds
#
# Revision: 1
# Processed by: cddbd v1.5.1PL0 Copyright (c) Steve Scherf et al.
# Submitted via: MusicWizard 7.0.2
#
DISCID=7807ca09
DTITLE=Brown, Oscar  JR - Movin' On
DYEAR=1999
DGENRE=Jazz
TTITLE0=A Dime Away From A Hotdog
TTITLE1=Walk Away
TTITLE2=Feel The Fire
TTITLE3=A Ladiesman
TTITLE4=No Place To Be Somebody
TTITLE5=To Stay In Good With You
TTITLE6=Gang Bang
TTITLE7=First Lady
TTITLE8=Young Man
EXTD=YEAR: 1999
EXTT0=
EXTT1=
EXTT2=
EXTT3=
EXTT4=
EXTT5=
EXTT6=
EXTT7=
EXTT8=
PLAYORDER=
